<?xml version="1.0" encoding="UTF-8" standalone="no"?>
<!-- Created with Inkscape (http://www.inkscape.org/) -->

<svg
   xmlns:dc="http://purl.org/dc/elements/1.1/"
   xmlns:cc="http://creativecommons.org/ns#"
   xmlns:rdf="http://www.w3.org/1999/02/22-rdf-syntax-ns#"
   xmlns:svg="http://www.w3.org/2000/svg"
   xmlns="http://www.w3.org/2000/svg"
   xmlns:sodipodi="http://sodipodi.sourceforge.net/DTD/sodipodi-0.dtd"
   xmlns:inkscape="http://www.inkscape.org/namespaces/inkscape"
   width="744.09448819"
   height="1052.3622047"
   id="svg2"
   version="1.1"
   inkscape:version="0.48.4 r9939"
   sodipodi:docname="skull.svg">
  <defs
     id="defs4" />
  <sodipodi:namedview
     id="base"
     pagecolor="#ffffff"
     bordercolor="#666666"
     borderopacity="1.0"
     inkscape:pageopacity="0.0"
     inkscape:pageshadow="2"
     inkscape:zoom="0.7"
     inkscape:cx="254.4687"
     inkscape:cy="730.44875"
     inkscape:document-units="px"
     inkscape:current-layer="layer1"
     showgrid="false"
     inkscape:window-width="1366"
     inkscape:window-height="716"
     inkscape:window-x="0"
     inkscape:window-y="0"
     inkscape:window-maximized="1" />
  <metadata
     id="metadata7">
    <rdf:RDF>
      <cc:Work
         rdf:about="">
        <dc:format>image/svg+xml</dc:format>
        <dc:type
           rdf:resource="http://purl.org/dc/dcmitype/StillImage" />
        <dc:title></dc:title>
      </cc:Work>
    </rdf:RDF>
  </metadata>
  <g
     inkscape:label="Layer 1"
     inkscape:groupmode="layer"
     id="layer1">
    <g
       id="g3130"
       transform="matrix(0.2658952,0,0,0.2658952,1.6686967,-131.17202)">
      <path
         id="path3012"
         d="m 1198.625,914.5625 c -6.8194,0.0518 -12.7679,0.25446 -17.1875,0.65625 -23.5715,2.14285 -11.4419,14.98661 -7.1563,32.84375 1.4286,21.42857 0.7321,26.45089 -2.125,33.59375 -2.8572,7.14285 -1.4553,67.84815 0.6876,78.56255 2.1429,10.7142 -4.9867,15.7276 -12.8438,-2.8438 -7.8571,-18.5714 -19.2991,-25.7188 -17.1562,-20.7188 2.1429,5 -3.5492,14.2769 -6.4063,28.5626 -2.8572,14.2857 -0.7366,22.1518 1.4063,36.4374 2.1429,14.2857 -0.6876,12.1206 -5.6876,6.4063 -4.9999,-5.7143 -8.5804,-26.4018 -11.4374,-40.6875 -2.8573,-14.2857 -11.4465,-3.5847 -22.875,2.8438 -11.4285,6.4286 -27.8527,50.7276 -29.2813,57.1562 -1.4285,6.4286 -12.8393,26.4108 -17.125,22.125 -4.2857,-4.2857 2.1206,-43.5804 -13.5937,-66.4375 -15.7142,-22.8572 -19.9911,-13.5581 -23.5626,-2.8437 -3.5713,10.7142 -8.5535,30.7276 -7.125,47.1562 1.4285,16.4286 4.2768,37.125 3.5626,42.125 -0.7144,5 -3.5759,16.4419 9.2812,12.1562 12.8571,-4.2856 11.4419,-5.7098 12.1562,0.7188 0.7142,6.4286 -5.7143,12.1204 0,16.4062 5.7142,4.2858 -3.5937,33.567 -13.5937,44.2813 -10,10.7143 0.7277,27.1607 7.1563,32.875 6.4285,5.7143 12.1516,14.2946 16.4374,11.4375 4.2857,-2.8572 -7.8794,4.2723 11.4063,-12.1562 19.2857,-16.4286 24.2991,3.5848 22.1563,17.1562 -2.143,13.5714 10,4.9911 20,-6.4375 10,-11.4286 17.125,1.4375 17.125,1.4375 0,0 -7.1206,12.8303 -11.4063,15.6875 -4.2857,2.8571 -6.4464,31.4464 -2.875,42.875 3.5715,11.4286 9.2902,2.8528 15.7187,4.2813 6.4286,1.4285 3.5626,7.1518 13.5626,-3.5626 9.9999,-10.7142 14.3124,-0.7098 14.3124,5.7188 1e-4,6.4286 3.5536,7.116 12.125,-4.3125 8.5714,-11.4286 9.2991,-9.9956 12.1563,-4.2813 2.8571,5.7142 6.4152,1.4285 12.8437,-5 6.4286,-6.4285 -2.125,-32.8437 -2.125,-37.8437 1e-4,-5 4.2769,-29.2768 -6.4374,-28.5625 -10.7144,0.7143 -7.8484,-11.4419 -8.5626,-17.1562 -0.7143,-5.7144 7.8349,-27.8661 6.4063,-31.4376 -1.4285,-3.5715 5.7366,-15 3.5937,-20 -2.1428,-4.9999 3.5447,-13.5669 5.6876,-19.2812 2.1428,-5.7142 5.0089,-18.5581 11.4374,-22.8438 6.4286,-4.2856 8.5626,9.9956 8.5626,14.2813 0,4.2857 8.5715,7.8617 10,15.7187 1.4286,7.8571 6.4419,15.7055 2.1562,13.5626 -4.2857,-2.1428 -3.5803,10.0089 -6.4375,16.4374 -2.8571,6.4287 -0.7098,16.4331 5.7187,10.7188 6.4287,-5.7143 4.2857,2.8393 0,7.125 -4.2857,4.2858 -2.8481,19.2812 -3.5624,24.2812 -0.7144,5 -5,20.7277 -5,27.1563 -1e-4,6.4286 11.4374,9.9956 11.4374,24.2813 0,14.2856 3.5492,12.8437 6.4063,7.8437 2.8572,-5 13.5937,-16.4152 13.5937,-12.8437 1e-4,3.5715 -7.1518,11.4151 -11.4374,17.8437 -4.2858,6.4285 -5.0045,21.4553 -5.7188,34.3125 -0.7143,12.8571 12.8482,5.7054 18.5625,3.5625 5.7143,-2.1428 8.5848,2.8528 12.1563,4.2813 3.5714,1.4286 12.8437,-7.1563 17.8437,-7.1563 5,0 23.5937,-12.1161 23.5937,-15.6875 1e-4,-3.5714 4.9822,-5.0178 2.125,-32.875 -2.8571,-27.8571 20.7144,-28.5714 30,-25 9.2858,3.5715 26.4197,0.7143 33.5626,-5 7.1429,-5.7142 17.1651,-28.5536 13.5937,-32.125 -3.5715,-3.5714 -5.7098,-24.3081 -9.2813,-28.5938 -3.5715,-4.2858 2.1206,-18.5669 6.4063,-19.2812 4.2857,-0.7142 12.8572,-12.1473 20,-20.7188 7.1429,-8.5715 8.5848,-27.1205 12.1563,-36.4062 3.5713,-9.2857 -0.7099,-22.8572 -4.2813,-25 -3.5715,-2.1429 -23.5893,6.4286 -27.875,10 -4.2857,3.5714 -11.4107,24.2633 -17.125,31.4062 -5.7143,7.1429 3.5758,28.5805 5.7187,41.4376 2.1428,12.8571 -2.8616,-1.442 -5.7187,-7.1563 -2.8572,-5.7143 -6.4375,-37.1206 -11.4375,-41.4063 -5,-4.2857 -8.5714,-12.1652 -5,-18.5937 3.5714,-6.4286 12.8616,-18.5536 20.7188,-27.125 7.857,-8.5714 -10.7144,-22.1472 -15,-30.7187 -4.2857,-8.5715 -20.0179,-51.442 -27.875,-62.1563 -7.8571,-10.7143 -13.5626,-76.41518 -8.5626,-87.84375 5.0001,-11.42858 -7.125,-10.72768 -17.125,-12.15625 -8.125,-1.16071 -53.9806,-3.72444 -83.5312,-3.5 z m -73.2188,216.4687 c 4.7218,-0.021 9.2509,0.2462 12.2813,0.625 8.0812,1.0101 23.9771,15.9079 26.25,21.9688 2.2728,6.0609 1.0304,22.749 -2,29.0625 -3.0305,6.3134 -4.0388,20.1992 -3.2813,25.25 0.7576,5.0507 -11.1316,10.3521 -16.6874,12.625 -5.556,2.2728 -19.7019,6.8108 -24.5,10.0937 -4.7983,3.283 -6.0575,5.8161 -6.5626,-0.75 -0.5051,-6.566 4.7956,-10.6148 9.5938,-11.625 4.7982,-1.0101 14.4096,-8.5987 17.1875,-17.4374 2.7779,-8.8389 4.8082,-14.3911 8.3437,-15.9063 3.5356,-1.5152 3.2719,-10.6004 7.3126,-16.1563 4.0405,-5.5558 6.0718,-14.391 2.0312,-15.9062 -4.0406,-1.5153 -6.5785,1.5168 -8.0938,6.0625 -1.5153,4.5457 -18.9306,14.3758 -22.7187,17.4063 -3.788,3.0305 -13.3884,5.5699 -15.1563,14.1562 -1.7677,8.5863 -3.304,9.0869 -10.375,12.875 -7.071,3.7881 -13.8766,-2.2552 -19.9374,7.5938 -6.0611,9.849 -14.6342,7.82 -19.9376,7.0624 -5.3032,-0.7576 -10.3792,-14.4002 -6.8437,-21.2187 3.5355,-6.8185 8.0828,-6.0657 6.0625,-18.1875 -2.0203,-12.1219 5.3012,-19.428 21.9688,-32.8125 6.8186,-5.5558 9.8706,-6.3387 13.4062,-6.8437 3.5355,-0.5051 7.5768,-0.4907 12.375,-4.5313 2.9989,-2.5254 11.4116,-3.3717 19.2812,-3.4063 z m 134.25,9.875 c 0.6397,0.01 1.321,0.046 2.0313,0.094 11.3642,0.7576 33.0641,2.5371 39.125,5.0625 6.061,2.5254 10.3809,0.7465 12.9063,7.3125 2.5253,6.566 13.3547,36.636 15.375,38.6562 2.0202,2.0203 4.804,15.3969 2.5312,19.4376 -2.2728,4.0406 -0.7541,15.9172 -6.5625,17.9374 -5.8084,2.0203 -18.1807,7.0532 -21.9687,11.0938 -3.7881,4.0406 -18.429,9.3506 -25.5,5.5625 -7.071,-3.788 -13.3867,-15.4096 -18.4376,-18.1875 -5.0507,-2.7779 -10.3613,-10.1005 -17.9374,-6.3125 -7.5761,3.7881 -16.9063,-6.3097 -16.9063,-15.9063 0,-9.5963 1.7484,-21.2212 5.0313,-30.3124 2.778,-6.061 4.8099,-8.5736 5.0624,-1.25 0.2526,7.3235 -7.8168,10.8488 -4.2812,10.3437 3.5355,-0.505 7.0642,-4.8026 3.7812,3.5313 -3.2829,8.3336 -5.3066,3.0412 -2.7812,11.375 2.5254,8.3336 4.2786,12.1156 13.875,16.1562 9.5965,4.0406 15.6731,7.592 20.2188,10.875 4.5456,3.283 9.8598,10.3387 11.375,10.8438 1.5152,0.5051 7.0438,1.5017 5.7812,-1.7813 -1.2627,-3.283 -15.1435,-14.8918 -16.4062,-19.4375 -1.2627,-4.5457 -9.8286,-18.1645 -11.3438,-29.7812 -1.5153,-11.6169 -4.054,-22.7305 -1.7812,-27.7813 2.2727,-5.0508 1.2661,-5.5667 -6.5626,-2.0313 -7.8287,3.5355 -6.3058,4.0272 -0.75,-1.7812 5.5559,-5.8083 13.1159,-11.8539 7.8126,-10.8438 -4.9719,0.947 -3.2816,-3.0035 6.3124,-2.875 z"
         style="fill:#000000;stroke:#000000;stroke-width:1px;stroke-linecap:butt;stroke-linejoin:miter;stroke-opacity:1"
         inkscape:connector-curvature="0" />
      <path
         inkscape:connector-curvature="0"
         id="path3037"
         d="m 1084.9038,1381.9245 c -4.5457,-12.1219 3.5356,-22.7285 5.3033,-27.2742 1.7678,-4.5457 5.0508,-5.8083 6.566,-1.5152 1.5153,4.2932 3.283,4.5457 2.5254,8.5863 -0.7576,4.0406 -3.7881,14.6472 -2.7779,20.4556 1.0101,5.8084 -4.2932,8.0812 -6.566,7.0711 -2.2728,-1.0102 -3.0305,1.0101 -5.0508,-7.3236 z"
         style="fill:#000000;stroke:#000000;stroke-width:1px;stroke-linecap:butt;stroke-linejoin:miter;stroke-opacity:1" />
      <path
         inkscape:connector-curvature="0"
         id="path3039"
         d="m 1125.3099,1360.7112 c 4.7983,-10.354 9.0914,-18.6878 11.6168,-11.3642 2.5254,7.3236 4.5457,7.5762 4.0406,12.6269 -0.5051,5.0508 0,14.3947 1.7678,15.1523 1.7677,0.7576 1.2627,11.1117 -0.5051,14.1422 -1.7678,3.0304 -9.5965,9.5964 -6.8185,19.4454 2.7779,9.849 1.2627,17.1726 0.2525,21.4657 -1.0102,4.2932 -2.0203,16.9201 -2.7779,19.698 -0.7576,2.7779 -2.7779,5.0508 -3.5356,-4.7982 -0.7576,-9.849 -6.8185,-14.6472 -6.8185,-19.9505 0,-5.3033 -1.5152,-15.1523 -4.7982,-20.7081 -3.283,-5.5559 4.5457,-24.7488 5.0508,-32.83 0.505,-8.0812 -1.0102,-3.7881 2.5253,-12.8795 z"
         style="fill:#000000;stroke:#000000;stroke-width:1px;stroke-linecap:butt;stroke-linejoin:miter;stroke-opacity:1" />
      <path
         inkscape:connector-curvature="0"
         id="path3041"
         d="m 1099.2857,1377.3622 c 2.5,-12.1429 2.5,-16.25 4.4643,-18.2143 1.9643,-1.9643 2.8571,0.8929 2.1429,5.7143 -0.7143,4.8214 2.6785,-2.1429 3.75,-5.7143 1.0714,-3.5714 5.1785,-5.1786 7.1428,-1.0714 1.9643,4.1071 2.8572,12.5 1.6072,17.3214 -1.25,4.8214 -2.5,12.8571 -4.2858,15.1786 -1.7857,2.3214 -2.5,8.5714 -5.1785,7.1428 -2.6786,-1.4285 -9.4643,-5.1785 -9.6429,-11.7857 -0.1786,-6.6071 0,-8.5714 0,-8.5714 z"
         style="fill:#000000;stroke:#000000;stroke-width:1px;stroke-linecap:butt;stroke-linejoin:miter;stroke-opacity:1" />
      <path
         sodipodi:nodetypes="cccscccssscccsccccccsccsccsscc"
         inkscape:connector-curvature="0"
         id="path3112"
         d="m 797.97869,1258.2396 c 8.81751,38.8053 15.25355,77.6673 25.47485,93.9327 4.45065,-35.5624 1.9899,-85.7214 3.82507,-124.5401 0.28433,-4.2299 -7.26888,10.2883 -15.33388,16.4903 -7.12927,5.4823 -15.0405,9.306 -13.96604,14.1171 z M 684.37835,1082.1617 c 1.76776,-10.1015 2.14503,-20.6131 2.27284,-24.4962 -5.05076,8.0812 -16.41498,28.7893 -27.27412,36.618 -10.85914,7.8287 -46.21448,55.3059 -30.80965,100.2577 15.40482,44.9517 55.30585,85.6104 115.15739,77.2766 59.85154,-8.3337 105.3084,-101.2678 120.46069,-173.4937 0,0 28.85711,-70.7996 72.68873,-79.3242 -2.18131,4.1348 -3.36701,6.8458 -10.81689,17.3261 57.45242,-26.3902 67.42768,-20.8344 111.87436,-9.2176 44.4467,11.6167 124.2488,-71.72086 125.764,-77.2767 1.5153,-5.55584 -1.1363,-10.10154 -4.2931,-14.14214 -26.0115,-31.06219 -24.4962,-24.49619 -39.901,-35.1028 -36.0301,-33.60809 -73.2349,-38.26771 -114.1473,-45.45686 -15.82427,-3.15016 -40.21483,-6.68592 -50.82143,-13.75698 1.44697,3.19679 8.10443,12.09119 16.7288,14.51459 -8.16134,4.2984 -78.08148,21.30852 -110.10662,48.48732 -18.74968,15.91231 -40.67659,17.64704 -54.3443,18.79243 6.51088,3.6454 17.19055,8.21864 32.3354,5.50725 -10.748,13.0029 -58.80331,67.37167 -65.11677,102.22189 -6.31345,34.8503 -9.34391,116.9252 -17.17259,130.0572 -16.58781,46.8022 -48.04694,16.6504 -20.37944,-3.9868 4.00969,-0.1208 7.55626,1.6351 11.29215,1.7166 3.93613,0.086 7.79765,-16.8188 11.24778,-36.0451 3.35542,-18.6986 6.41744,-39.7026 2.08847,-41.761 -26.17278,-16.4494 -52.71645,-17.205 -76.7274,1.2844 z"
         style="fill:#000000;stroke:#000000;stroke-width:1px;stroke-linecap:butt;stroke-linejoin:miter;stroke-opacity:1" />
      <path
         inkscape:connector-curvature="0"
         id="path3114"
         d="m 1152.8571,1403.4336 c -8.0357,-18.75 -8.9285,-23.75 -5.1785,-32.8571 3.75,-9.1072 5.1785,-9.4643 8.0357,-1.9643 2.8571,7.5 8.5714,16.7857 7.3214,25.8928 -1.25,9.1072 -4.4643,20.3572 -10.1786,8.9286 z"
         style="fill:#000000;stroke:#000000;stroke-width:1px;stroke-linecap:butt;stroke-linejoin:miter;stroke-opacity:1" />
      <path
         inkscape:connector-curvature="0"
         id="path3116"
         d="m 1214.7835,1458.2795 c 3.7295,-17.537 6.2319,-34.2924 6.197,-45.9365 -0.027,-9.1411 -2.6982,-14.0525 -1.7264,-19.5594 0.5507,-3.1208 3.0047,-6.6615 3.2064,-9.388 0.4413,-5.9639 5.953,-12.2847 11.6934,-10.5625 7.5761,2.2729 10.1014,6.8185 7.8286,18.1827 -0.7005,3.5024 0.2116,8.6656 -2.3818,12.8862 -2.7469,4.4705 -2.6874,9.6982 -2.8263,14.6617 -0.1808,6.4658 -2.804,12.2349 -4.3883,16.3938 -4.1683,7.5768 -9.5892,18.3795 -16.0336,24.1007 -0.8138,0.7225 -1.9832,1.9758 -1.569,-0.7787 z"
         style="fill:#000000;stroke:#000000;stroke-width:1px;stroke-linecap:butt;stroke-linejoin:miter;stroke-opacity:1"
         sodipodi:nodetypes="cssssssscsc" />
      <path
         inkscape:connector-curvature="0"
         id="path3118"
         d="m 1249.8112,1397.0767 c -3.283,-3.788 -4.5457,-3.5355 -3.5355,-8.3337 1.0101,-4.7982 -0.5051,-14.8998 2.7779,-15.6574 3.283,-0.7576 9.5965,0.2526 7.8287,5.5559 -1.7678,5.3033 -2.5254,13.3845 -3.0305,15.6573 -0.505,2.2729 -1.2627,5.8084 -4.0406,2.7779 z"
         style="fill:#000000;stroke:#000000;stroke-width:1px;stroke-linecap:butt;stroke-linejoin:miter;stroke-opacity:1" />
      <path
         inkscape:connector-curvature="0"
         id="path3120"
         d="m 1261.1754,1390.5107 c 3.283,-10.8591 5.5559,-14.8997 6.566,-18.4352 1.0102,-3.5356 5.3033,-4.0406 6.566,2.5253 1.2627,6.566 5.3033,27.5267 2.0203,30.5572 -3.283,3.0304 -7.3236,0.2525 -11.3642,-3.283 -4.0406,-3.5356 -6.0609,-5.5559 -3.7881,-11.3643 z"
         style="fill:#000000;stroke:#000000;stroke-width:1px;stroke-linecap:butt;stroke-linejoin:miter;stroke-opacity:1" />
      <path
         inkscape:connector-curvature="0"
         id="path3122"
         d="m 1280.1158,1360.9638 c -2.7779,6.0609 -3.283,13.3845 -0.2525,19.698 3.0304,6.3134 3.0304,13.1319 -0.2526,18.9403 -3.283,5.8084 6.0609,5.8084 10.3541,1.0102 4.2931,-4.7983 5.0508,-12.1219 3.283,-17.4252 -1.7678,-5.3033 -8.3338,-15.9099 -6.8185,-19.6979 1.5152,-3.7881 -3.7881,-10.1016 -6.3135,-2.5254 z"
         style="fill:#000000;stroke:#000000;stroke-width:1px;stroke-linecap:butt;stroke-linejoin:miter;stroke-opacity:1" />
      <path
         sodipodi:nodetypes="cccsccsssccccccscsssc"
         inkscape:connector-curvature="0"
         id="path3124"
         d="m 1321.2795,919.02205 c 64.1447,-30.30458 139.3757,-69.11406 147.962,-78.7105 -1.7708,12.18927 -17.6217,29.49838 -32.8046,40.82978 25.7099,-5.45432 121.9991,4.34698 147.758,23.53988 25.7589,19.1929 89.8804,60.80786 119.6799,66.86877 -11.1117,2.52538 -44.6993,-2.02031 -59.8515,-4.04061 10.3541,13.13198 35.3553,54.54823 27.2741,87.37823 -8.0812,32.8299 -16.1625,90.4086 7.071,83.8426 23.2336,-6.566 29.5471,-13.8896 26.0115,-21.9708 -2.0627,-4.7147 -9.3085,-8.3517 -9.3085,-8.3517 0,0 23.1959,-27.7055 5.2679,-26.1198 2.7394,-5.379 11.6064,-24.5428 1.2626,-21.9708 15.5384,-15.2563 52.4469,-11.0945 62.6295,3.6618 8.0812,13.132 15.1523,35.8605 15.1523,35.8605 0,0 17.8054,-19.5658 43.6922,-24.7339 -14.0353,18.1167 -16.7666,34.3632 -30.4059,56.676 -24.4244,39.9562 -75.1397,87.8066 -102.6848,88.266 -48.4873,-2.5254 -74.7513,-8.0812 -99.5,-112.632 -24.7488,-104.5508 -161.8767,-56.6602 -206.0711,-34.8503 -47.4518,23.4174 -83.2335,-101.32914 -82.2662,-121.66642 1.0969,-23.0602 -1.0714,-21.77521 19.1316,-31.87673 z"
         style="fill:#000000;stroke:#000000;stroke-width:1px;stroke-linecap:butt;stroke-linejoin:miter;stroke-opacity:1" />
      <path
         inkscape:connector-curvature="0"
         id="path3126"
         d="m 1533.2143,1237.7193 c 38.2143,-69.6428 42.1428,-90.7143 50.3571,-71.4285 8.2143,19.2857 16.0714,15.3571 -22.8571,50.7142 -38.9286,35.3572 -29.6429,26.7858 -27.5,20.7143 z"
         style="fill:#000000;stroke:#000000;stroke-width:1px;stroke-linecap:butt;stroke-linejoin:miter;stroke-opacity:1" />
      <path
         inkscape:connector-curvature="0"
         id="path3128"
         d="m 1493.5714,1082.7193 c 31.0714,14.2857 42.5,37.5 38.9286,23.5715 -3.5714,-13.9286 -15,-31.7858 -21.7857,-47.1429 -6.7857,-15.3571 -4.2857,-12.1429 -20,-2.8571 -15.7143,9.2857 -46.7857,18.5714 -31.7857,20.7142 15,2.1429 18.9285,-2.5 34.6428,5.7143 z"
         style="fill:#000000;stroke:#000000;stroke-width:1px;stroke-linecap:butt;stroke-linejoin:miter;stroke-opacity:1" />
    </g>
  </g>
</svg>
